<svg width="703px" height="668px" viewBox="0 0 703 668" version="1.1" xmlns="http://www.w3.org/2000/svg" xmlns:xlink="http://www.w3.org/1999/xlink">
  <!-- Generator: Sketch 49.2 (51160) - http://www.bohemiancoding.com/sketch -->
  <desc>Created with Sketch.</desc>
  <defs>
    <linearGradient x1="50%" y1="87.1504912%" x2="50%" y2="42.3025031%" id="linearGradient-1">
      <stop stop-color="#8BFFF3" stop-opacity="0" offset="5.78034682%"></stop>
      <stop stop-color="#80EDED" stop-opacity="0.0920245399" offset="0%"></stop>
      <stop stop-color="#1037B0" offset="100%"></stop>
    </linearGradient>
    <linearGradient x1="50%" y1="87.1504912%" x2="50%" y2="42.3025031%" id="linearGradient-2">
      <stop stop-color="#8BFFF3" stop-opacity="0" offset="0%"></stop>
      <stop stop-color="#1037B0" offset="100%"></stop>
    </linearGradient>
    <linearGradient x1="5.69152502%" y1="0%" x2="102.838005%" y2="166.359195%" id="linearGradient-3">
      <stop stop-color="#1037AF" offset="0%"></stop>
      <stop stop-color="#318BFF" offset="100%"></stop>
    </linearGradient>
    <linearGradient x1="-30.4496047%" y1="-86.5627467%" x2="65.1174313%" y2="183.591861%" id="linearGradient-4">
      <stop stop-color="#FBFCFD" offset="0%"></stop>
      <stop stop-color="#DEEAFC" offset="100%"></stop>
    </linearGradient>
    <circle id="path-5" cx="40.5" cy="40.5" r="3"></circle>
    <circle id="path-6" cx="92" cy="52" r="3"></circle>
    <linearGradient x1="50%" y1="87.1504912%" x2="50%" y2="10.5385915%" id="linearGradient-7">
      <stop stop-color="#00D1FF" offset="0%"></stop>
      <stop stop-color="#00D1FF" offset="49.4628416%"></stop>
      <stop stop-color="#00D1FF" stop-opacity="0" offset="100%"></stop>
    </linearGradient>
    <linearGradient x1="136.417005%" y1="-18.4407868%" x2="41.7353373%" y2="62.0659305%" id="linearGradient-8">
      <stop stop-color="#FFFFFF" offset="0%"></stop>
      <stop stop-color="#F8FDFF" offset="100%"></stop>
    </linearGradient>
    <linearGradient x1="26.1595697%" y1="91.3683152%" x2="97.284204%" y2="-45.2881955%" id="linearGradient-9">
      <stop stop-color="#237AF6" offset="0%"></stop>
      <stop stop-color="#60A6FF" offset="100%"></stop>
    </linearGradient>
    <path d="M12.2436523,1.03466797 C12.917806,2.64729818 15.5563151,3.05045573 20.1591797,2.24414063 C27.5182292,1.78710938 31.6009115,4.16764323 32.4072266,9.38574219 C33.6166992,17.2128906 32.375,22.6577148 37.8242187,19.9331055 C41.4570312,18.1166992 43.7838542,16.9599609 44.8046875,16.4628906 C46.8870443,17.8408203 47.9282227,19.4165039 47.9282227,21.1899414 L36.1235352,29.3515625 C33.3100586,30.8372396 31.297526,30.4448242 30.0859375,28.1743164 C28.2685547,24.7685547 27.6196289,22.8979492 27.6196289,28.722168 C27.6196289,32.6049805 27.5319824,36.9357096 27.3566895,41.7143555 C24.2977702,43.6315104 20.3457031,44.4462891 15.5004883,44.1586914 C8.23266602,43.7272949 6.38671875,40.6777344 5.16210938,39.6674805 C4.9983724,37.4088542 4.9983724,34.9564616 5.16210938,32.3103027 C2.82259115,31.1235238 1.43505859,29.237863 0.999511719,26.6533203 C0.346191406,22.7765062 1.21337891,3.70849609 5.453125,1.72119141 C8.2796224,0.396321615 10.5431315,0.167480469 12.2436523,1.03466797 Z" id="path-10"></path>
    <linearGradient x1="44.5533751%" y1="20.6159631%" x2="46.6812542%" y2="65.3369698%" id="linearGradient-12">
      <stop stop-color="#0A60DB" offset="0%"></stop>
      <stop stop-color="#237AF6" offset="100%"></stop>
    </linearGradient>
  </defs>
  <g id="Page-1" stroke="none" stroke-width="1" fill="none" fill-rule="evenodd">
    <g id="Selly.gg-E-comerce-Copy" transform="translate(-960.000000, -181.000000)">
      <g id="Header">
        <g id="ill_Header_eCommerce" transform="translate(960.000000, 180.000000)">
          <g id="shadow" transform="translate(8.000000, 388.000000)" opacity="0.200000003">
            <path d="M685,253.50064 C675.352346,271.551614 561.29488,280.577093 342.5,280.577093 C123.70512,280.577093 9.64765447,271.551614 0.327604233,253.500658 L0,52.455731 L0.327604233,27.4997605 C9.9752587,9.44878644 124.032724,0.4233082 342.827604,0.4233082 C561.622485,0.4233082 675.67995,9.44878644 685,27.4997429 L684.995122,52.4557307 L685,253.50064 Z" id="Combined-Shape" fill="url(#linearGradient-1)"></path>
          </g>
          <g id="shadow" transform="translate(8.000000, 388.000000)" opacity="0.200000003">
            <path d="M589.908693,253.50064 C582.952401,271.551614 500.713023,280.577093 342.954347,280.577093 C185.19567,280.577093 102.956293,271.551614 96.236214,253.500658 L96,52.455731 L96.3275209,27.4997605 C103.283813,9.44878644 185.523191,0.4233082 343.281867,0.4233082 C501.040544,0.4233082 583.279921,9.44878644 590,27.4997429 L589.905176,52.4557307 L589.908693,253.50064 Z" id="Combined-Shape" fill="url(#linearGradient-2)"></path>
          </g>
          <g id="Group-45" transform="translate(0.000000, 284.000000)">
            <g id="Group-2" transform="translate(0.000000, 0.200000)">
              <path d="M658.8,101.453315 L702,101.453315 L702,141.584649 C702.107385,142.249377 702.075904,142.947418 701.882884,143.638524 C701.431309,145.25538 700.167851,146.518838 698.550994,146.970413 L357.533755,242.213726 C353.310607,243.393216 348.845031,243.393216 344.621882,242.213726 L3.6046431,146.970413 C1.23243745,146.307875 -0.223456181,143.975196 0.153908332,141.6 L0,100.8 L39.6,100.8 L344.621882,42.4809468 C348.845031,41.3014562 353.310607,41.3014562 357.533755,42.4809468 L658.8,101.453315 Z" id="Combined-Shape" fill="url(#linearGradient-3)"></path>
              <path d="M351.6,243.092637 L351.6,41.6020352 C353.597753,41.6454826 355.591395,41.9384616 357.533755,42.4809468 L658.8,101.453315 L702,101.453315 L702,141.584649 C702.107385,142.249377 702.075904,142.947418 701.882884,143.638524 C701.431309,145.25538 700.167851,146.518838 698.550994,146.970413 L357.533755,242.213726 C355.591395,242.756211 353.597753,243.04919 351.6,243.092663 Z" id="Combined-Shape" fill="url(#linearGradient-3)"></path>
              <path d="M359.017612,206.753453 L391.017612,197.753453 L391.017612,203.753453 L359.017612,212.753453 L359.017612,206.753453 Z M359.017612,217.753453 L377.306242,212.609776 L377.306242,218.609776 L359.017612,223.753453 L359.017612,217.753453 Z" id="Combined-Shape" fill="#5597F6"></path>
              <path d="M357.533755,1.58692556 L698.550994,96.8302386 C701.104249,97.5433417 702.595987,100.191248 701.882884,102.744502 C701.431309,104.361359 700.167851,105.624817 698.550994,106.076391 L357.533755,201.319705 C353.310607,202.499195 348.845031,202.499195 344.621882,201.319705 L3.6046431,106.076391 C1.05138851,105.363288 -0.44034908,102.715382 0.272753951,100.162128 C0.724328745,98.5452711 1.98778639,97.2818134 3.6046431,96.8302386 L344.621882,1.58692556 C348.845031,0.407434945 353.310607,0.407434945 357.533755,1.58692556 Z" id="Polygon" fill="url(#linearGradient-4)"></path>
              <path d="M549.189222,58.8208389 L424.17658,93.6078722 C422.580373,94.0520456 421.646466,95.7061006 422.090639,97.3023073 C422.369064,98.3028718 423.145194,99.0882537 424.142389,99.3785154 L565.958868,140.658187" id="Path-13" stroke="#CADDF7"></path>
              <polyline id="Path-14" stroke="#CADDF7" points="501.179335 77.0607422 346.302502 30.8883582 191.396973 77.0607422"></polyline>
              <polyline id="Path-15" stroke="#CADDF7" points="129.792288 61.3933736 300.414062 104.909375 162.269979 150.286426"></polyline>
              <path d="M326.546194,140.67853 L455.423032,173.54775" id="Path-15" stroke="#CADDF7"></path>
            </g>
          </g>
          <g id="Group-46" transform="translate(73.000000, 0.000000)">
            <path d="M143.246404,1.46880153 L510.994334,98.7903278 C516.014409,100.18533 520.083984,105.523243 520.083984,110.712891 L520.083984,414.64539 C520.083984,417.802842 518.026796,420.591901 515.010153,421.5243 L500.366765,426.050353 L148.535029,312.591855 C143.514953,311.196853 139.445378,305.85894 139.445378,300.669292 L109.003192,9.03200426 L135.660588,1.52826403 C138.138428,0.830781563 140.757935,0.810248185 143.246404,1.46880153 Z" id="Rectangle-7" fill="url(#linearGradient-3)"></path>
            <path d="M116.946331,7.37115551 L495.0758,112.447563 C500.095875,113.842565 504.165451,119.180478 504.165451,124.370125 L504.165451,419.426118 C504.165451,424.615765 500.095875,427.691933 495.0758,426.296931 L116.946331,321.220523 C111.926256,319.825521 107.85668,314.487608 107.85668,309.297961 L107.85668,14.241968 C107.85668,9.05232071 111.926256,5.97615317 116.946331,7.37115551 Z" id="Rectangle-7" fill="#FFFFFF"></path>
            <path d="M116.946331,7.37115551 L153.304934,17.4746562 L153.304934,331.324024 L116.946331,321.220523 C111.926256,319.825521 107.85668,314.487608 107.85668,309.297961 L107.85668,14.241968 C107.85668,9.05232071 111.926256,5.97615317 116.946331,7.37115551 Z" id="Rectangle-7" fill="#BCD0F0"></path>
            <path d="M130.580807,95.7301572 C135.600883,97.1251596 139.670458,94.048992 139.670458,88.8593447 C139.670458,83.6696974 135.600883,78.3317842 130.580807,76.9367819 C125.560732,75.5417796 121.491156,78.6179471 121.491156,83.8075944 C121.491156,88.9972417 125.560732,94.3351549 130.580807,95.7301572 Z" id="Oval-2" fill="#2B7DF2"></path>
            <path d="M130.580807,133.316908 C135.600883,134.71191 139.670458,131.635743 139.670458,126.446095 C139.670458,121.256448 135.600883,115.918535 130.580807,114.523533 C125.560732,113.12853 121.491156,116.204698 121.491156,121.394345 C121.491156,126.583992 125.560732,131.921906 130.580807,133.316908 Z" id="Oval-2" fill="#2B7DF2"></path>
            <path d="M130.580807,170.903659 C135.600883,172.298661 139.670458,169.222493 139.670458,164.032846 C139.670458,158.843199 135.600883,153.505286 130.580807,152.110283 C125.560732,150.715281 121.491156,153.791448 121.491156,158.981096 C121.491156,164.170743 125.560732,169.508656 130.580807,170.903659 Z" id="Oval-2" fill="#2B7DF2"></path>
            <path d="M130.580807,208.490409 C135.600883,209.885412 139.670458,206.809244 139.670458,201.619597 C139.670458,196.429949 135.600883,191.092036 130.580807,189.697034 C125.560732,188.302032 121.491156,191.378199 121.491156,196.567846 C121.491156,201.757494 125.560732,207.095407 130.580807,208.490409 Z" id="Oval-2" fill="#2B7DF2"></path>
            <path d="M174.21113,70.2676074 L248.746266,90.9797838 C250.252289,91.3982845 251.473161,92.9996585 251.473161,94.5565527 L251.473161,128.384628 C251.473161,129.941522 250.252289,130.864373 248.746266,130.445872 L174.21113,109.733696 C172.705108,109.315195 171.484235,107.713821 171.484235,106.156927 L171.484235,72.3288511 C171.484235,70.771957 172.705108,69.8491067 174.21113,70.2676074 Z" id="Rectangle-12" fill="#D7E4F8" opacity="0.601854011"></path>
            <path d="M288.585625,101.28337 L363.120761,121.995546 C364.626784,122.414047 365.847656,124.015421 365.847656,125.572315 L365.847656,159.400391 C365.847656,160.957285 364.626784,161.880135 363.120761,161.461634 L288.585625,140.749458 C287.079603,140.330957 285.85873,138.729583 285.85873,137.172689 L285.85873,103.344614 C285.85873,101.787719 287.079603,100.864869 288.585625,101.28337 Z" id="Rectangle-12" fill="#D7E4F8" opacity="0.601854011"></path>
            <path d="M406.778985,133.205245 L481.31412,153.917421 C482.820143,154.335922 484.041016,155.937296 484.041016,157.49419 L484.041016,191.322266 C484.041016,192.87916 482.820143,193.80201 481.31412,193.383509 L406.778985,172.671333 C405.272962,172.252832 404.05209,170.651458 404.05209,169.094564 L404.05209,135.266489 C404.05209,133.709594 405.272962,132.786744 406.778985,133.205245 Z" id="Rectangle-12" fill="#D7E4F8" opacity="0.601854011"></path>
            <path d="M174.21113,128.854297 L482.742188,214.96726 C484.24821,215.385761 485.469083,216.987135 485.469083,218.544029 L485.469083,402.391881 C485.469083,403.948775 484.24821,404.871626 482.742187,404.453125 L174.21113,318.340162 C172.705108,317.921661 171.484235,316.320287 171.484235,314.763393 L171.484235,130.91554 C171.484235,129.358646 172.705108,128.435796 174.21113,128.854297 Z" id="Rectangle-12" fill="#D7E4F8" opacity="0.601854011"></path>
            <g id="Group-54" transform="translate(258.000000, 209.000000) scale(-1, 1) translate(-258.000000, -209.000000) translate(195.000000, 159.000000)" fill="#2B7DF2">
              <path d="M53.0614283,63.1393752 C51.6056836,61.9793043 50.6044941,60.5604206 50.0578598,58.8827241 C49.2379084,56.3661793 53.9917578,54.7536885 56.3587544,51.4798079 C58.7257509,48.2059272 57.4339186,45.9170934 56.3587544,46.2390539 C55.2835901,46.5610145 53.6880721,49.7222226 53.0614283,52.4672002 C52.4347845,55.2121777 51.0220619,55.6429711 49.2332363,54.5167823 C47.4444106,53.3905935 49.2332363,51.7829267 52.0201367,48.2047344 C54.8070372,44.6265421 50.9835172,45.488096 50.0578598,46.9715007 C49.1322024,48.4549055 47.3246883,49.8723171 44.1044517,52.5920611 C40.8842151,55.311805 40.2575713,56.3013463 40.2575713,60.3842727 C40.2575713,64.467199 35.7069577,64.6133083 35.7069577,63.1801367 C35.7069577,61.746965 35.0032244,56.5245504 31.0021651,59.0729002 C27.0011058,61.62125 27.8975627,69.1108247 25.4201881,73.4828445 C22.9428135,77.8548642 22.5912388,68.5408423 24.6492936,65.0697301 C26.7073483,61.5986179 25.8062193,60.5199685 22.5912388,59.034245 C19.3762583,57.5485216 19.6314711,55.9116749 21.111355,52.1730317 C22.5912388,48.4343885 22.1917753,49.4157551 18.0277769,51.3619794 C13.8637786,53.3082037 16.1355813,47.8197541 17.0816791,44.5024737 C18.0277769,41.1851933 21.2608618,40.5603542 19.6314711,38.3708749 C18.0020805,36.1813956 15.003768,40.4887906 12.0726169,39.5405044 C9.14146569,38.5922181 10.8479458,35.3755785 16.1355813,33.069837 C21.4232168,30.7640956 23.6412906,29.1390639 26.5286409,29.9576101 C29.4159913,30.7761562 32.7425179,29.0098628 38.1796602,25.4133904 C43.6168026,21.816918 50.230727,23.0788555 53.0614283,25.0180458 C55.8921296,26.9572361 60.271044,22.8591088 63.3149093,21.9476159 C66.3587746,21.0361231 68.2702426,24.8807552 67.5075242,26.7116786 C66.7448058,28.542602 68.2702426,29.0512386 70.5601497,27.0815414 C72.8500568,25.1118442 71.5810009,26.775845 71.5810009,29.3674203 C71.5810009,31.9589956 71.5810009,31.5972465 73.2057194,32.1049546 C74.830438,32.6126627 75.9540752,34.0158084 74.5798973,35.4923955 C73.2057194,36.9689826 71.321116,36.4682455 70.5601497,34.9317277 C69.7991833,33.3952099 66.8289034,35.2506759 65.5020305,36.4463938 C64.1751575,37.6421117 65.5020305,37.8450034 63.3149093,37.8006374 C61.1277881,37.7562713 58.7859041,37.5825591 60.271044,38.7121302 C61.756184,39.8417014 59.4178039,40.6888235 60.271044,42.7069235 C61.1242841,44.7250234 63.3149093,42.4515329 65.5020305,40.1894603 C67.6891516,37.9273877 70.5601497,38.6747942 73.5099892,37.7914576 C76.4598287,36.908121 76.1421267,40.2273178 77.9595689,41.6283459 C79.7770111,43.0293739 80.6588677,44.8712788 78.918515,47.2893104 C77.1781622,49.707342 75.1878528,52.7906582 70.5601497,54.1764351 C65.9324466,55.5622121 68.2702426,54.8621534 68.2702426,57.0211274 C68.2702426,59.1801015 66.8289034,60.1203517 66.8289034,63.962496 C66.8289034,67.8046403 65.426693,72.5505481 63.3149093,75.703074 C61.2031255,78.8555999 57.4339186,74.9491882 57.4339186,73.1565715 C57.4339186,71.3639549 57.4339186,70.1606206 56.3587544,69.2746387 C55.2835901,68.3886567 55.0237052,68.4336459 55.0237052,65.8754806 C55.0237052,64.170037 54.3696129,63.2580019 53.0614283,63.1393752 Z M49.1367878,77.4657985 C49.4311124,75.8231285 49.1423763,74.6570646 48.2705794,73.9676067 C46.962884,72.93342 49.5869679,69.713944 50.9654502,73.0348203 C52.3439325,76.3556967 54.8990923,79.000197 51.6919476,80.8252061 C49.5538512,82.0418788 48.7021312,80.9220762 49.1367878,77.4657985 Z M3.69841298,86.5695418 C4.25200276,84.4022551 3.456428,83.6279135 1.31168871,84.2465171 C-1.90542023,85.1744226 1.31168871,80.7339009 5.39399221,78.242495 C9.47629572,75.751089 8.45277223,78.8650533 6.92338222,80.8566992 C5.39399221,82.8483452 6.28389058,84.2873139 6.28389058,85.8238167 C6.28389058,87.3603196 7.24340876,89.431612 8.45277223,86.8804765 C9.66213569,84.329341 10.0192179,83.0642157 14.5057655,83.4523949 C18.9923131,83.840574 16.7437055,86.7615752 20.1225121,88.8400145 C23.5013186,90.9184538 18.7042892,95.3212069 16.7437055,93.8380244 C14.7831218,92.3548419 11.947799,94.3707358 10.9832277,96.6220102 C10.0186565,98.8732847 9.45889076,100.006026 5.26485869,98.27135 C2.46883731,97.1148992 1.94668874,93.2142964 3.69841298,86.5695418 Z M90.5305033,65.1415489 C88.1486654,65.0723739 86.9577465,63.3533528 86.9577465,59.9844855 C86.9577465,54.9311847 88.5568575,54.4060443 90.5305033,53.1105729 C92.5041491,51.8151015 93.9500413,52.0809398 94.8769856,47.815173 C95.8039299,43.5494063 98.5677385,45.267724 101.379685,42.2062915 C104.191631,39.144859 108.265252,40.1330267 109.480908,38.2644387 C110.696564,36.3958507 109.480908,33.8355869 112.072712,33.0551868 C114.664517,32.2747868 115.877352,31.9095984 114.999132,29.4018168 C114.120913,26.8940351 112.072712,27.0749043 108.550441,28.1354706 C105.02817,29.196037 105.653374,27.643209 101.379685,28.2672347 C97.1059961,28.8912604 99.5997639,24.490062 94.8769856,24.9513723 C90.1542074,25.4126827 92.0450798,23.3740142 92.0450798,20.126378 C92.0450798,16.8787419 95.5098203,17.1232636 97.1529597,17.5176669 C98.7960991,17.9120702 99.6437923,20.2352676 101.379685,17.3157005 C103.115577,14.3961334 101.379685,13.4058515 98.5677385,14.252537 C95.7557922,15.0992224 95.7381809,15.1045253 97.1529597,12.7675408 C98.5677385,10.4305563 100.244927,9.73235605 104.373028,8.48937233 C108.50113,7.2463886 109.480908,6.9513744 112.072712,3.65887164 C114.664517,0.366368881 115.877352,-0.286864589 117.432435,1.38224846 C118.987517,3.05136151 120.262579,3.7049809 123.436732,2.74923388 C126.610886,1.79348687 127.531372,3.62050978 122.122925,5.24900937 C116.714478,6.87750895 119.153064,14.6542498 122.122925,16.7475383 C125.092787,18.8408268 124.802787,20.5516739 122.122925,22.0213829 C119.443064,23.4910918 120.262579,24.6089109 120.262579,28.6008091 C120.262579,32.5927073 119.448348,33.8655268 115.877352,34.9407643 C112.306356,36.0160018 111.787408,40.5959335 109.480908,41.2904277 C107.174408,41.9849219 107.619975,42.7346805 108.550441,45.5240862 C109.480908,48.3134918 109.297163,50.4910414 105.653374,54.3551763 C102.009584,58.2193112 101.379685,63.9272222 101.379685,71.2947766 C101.379685,78.6623311 97.9249241,78.3001683 97.9249241,74.8657393 C97.9249241,71.4313102 96.5148416,71.9327023 94.8769856,68.0743474 C93.7850816,65.5021109 92.3362542,64.5245114 90.5305033,65.1415489 Z M77.6514731,19.2478937 C75.5899842,19.8421279 74.5592397,18.9809764 74.5592397,16.6644392 C74.5592397,13.1896335 72.7605634,15.802818 72.7605634,13.2473327 C72.7605634,10.6918475 77.6514731,9.64281368 79.2407648,9.98741769 C80.8300565,10.3320217 81.1647334,10.8247899 84.2434217,9.9373431 C87.3221099,9.04989626 87.6274391,10.7480188 85.9354304,12.0050987 C84.2434217,13.2621785 83.6384072,14.2018989 85.105793,17.0226176 C86.5731788,19.8433362 82.3155025,20.7535701 81.1647334,19.621966 C80.397554,18.8675633 79.2264672,18.7428725 77.6514731,19.2478937 Z M88.4494175,16.9276128 C86.4605228,16.387271 86.4605228,15.0560808 88.4494175,12.9340424 C91.4327596,9.75098463 95.2738977,7.9602699 93.6848532,11.4445994 C92.0958087,14.9289288 93.6845751,15.3980498 92.0958087,16.9943297 C91.0366311,18.0585163 89.8211673,18.0362773 88.4494175,16.9276128 Z" id="Combined-Shape"></path>
            </g>
            <polygon id="Rectangle-8" fill="#CADBF7" points="340 283.246094 468 319 468 390 340 354.246094"></polygon>
            <polygon id="Rectangle-26" fill="#BAD1F4" points="200 296 244.404297 308.945801 244.404297 321.65918 200 308.713379"></polygon>
            <polygon id="Rectangle-8" fill="#D8E6FD" points="188.427734 240.339844 327.730469 280.65625 327.730469 351.65625 188.427734 311.339844"></polygon>
            <path d="M261.929145,322.054078 L315.670952,336.75282 C316.810111,337.064387 317.600098,338.099456 317.600098,339.280454 L317.600098,339.280454 C317.600098,340.123486 316.916686,340.806898 316.073654,340.806898 C315.93761,340.806898 315.802177,340.788711 315.670952,340.75282 L261.929145,326.054078 C260.789987,325.74251 260,324.707441 260,323.526444 L260,323.526444 C260,322.683412 260.683412,322 261.526444,322 C261.662488,322 261.797921,322.018187 261.929145,322.054078 Z" id="Rectangle-14" fill="#BAD1F4"></path>
            <path d="M261.929283,322.053575 L298.769936,332.119414 C299.909112,332.430667 300.699219,333.465613 300.699219,334.646545 L300.699219,334.646545 C300.699219,335.489805 300.015622,336.173402 299.172362,336.173402 C299.036415,336.173402 298.901076,336.155245 298.769936,336.119414 L261.929283,326.053575 C260.790107,325.742322 260,324.707376 260,323.526444 L260,323.526444 C260,322.683184 260.683597,321.999587 261.526856,321.999587 C261.662804,321.999587 261.798142,322.017744 261.929283,322.053575 Z" id="Rectangle-14" fill="#A2BCE6"></path>
            <path d="M261.929145,282.054078 L315.670952,296.75282 C316.810111,297.064387 317.600098,298.099456 317.600098,299.280454 L317.600098,299.280454 C317.600098,300.123486 316.916686,300.806898 316.073654,300.806898 C315.93761,300.806898 315.802177,300.788711 315.670952,300.75282 L261.929145,286.054078 C260.789987,285.74251 260,284.707441 260,283.526444 L260,283.526444 C260,282.683412 260.683412,282 261.526444,282 C261.662488,282 261.797921,282.018187 261.929145,282.054078 Z" id="Rectangle-14" fill="#BAD1F4"></path>
            <path d="M261.929283,282.053575 L298.769936,292.119414 C299.909112,292.430667 300.699219,293.465613 300.699219,294.646545 L300.699219,294.646545 C300.699219,295.489805 300.015622,296.173402 299.172362,296.173402 C299.036415,296.173402 298.901076,296.155245 298.769936,296.119414 L261.929283,286.053575 C260.790107,285.742322 260,284.707376 260,283.526444 L260,283.526444 C260,282.683184 260.683597,281.999587 261.526856,281.999587 C261.662804,281.999587 261.798142,282.017744 261.929283,282.053575 Z" id="Rectangle-14" fill="#A2BCE6"></path>
            <path d="M261.929145,312.054078 L315.670952,326.75282 C316.810111,327.064387 317.600098,328.099456 317.600098,329.280454 L317.600098,329.280454 C317.600098,330.123486 316.916686,330.806898 316.073654,330.806898 C315.93761,330.806898 315.802177,330.788711 315.670952,330.75282 L261.929145,316.054078 C260.789987,315.74251 260,314.707441 260,313.526444 L260,313.526444 C260,312.683412 260.683412,312 261.526444,312 C261.662488,312 261.797921,312.018187 261.929145,312.054078 Z" id="Rectangle-14" fill="#BAD1F4"></path>
            <path d="M261.928868,312.05509 L285.83871,318.608073 C286.977831,318.920272 287.767578,319.955589 287.767578,321.136719 L287.767578,321.136719 C287.767578,321.979292 287.084538,322.662332 286.241964,322.662332 C286.105726,322.662332 285.970102,322.644084 285.83871,322.608073 L261.928868,316.05509 C260.789747,315.74289 260,314.707573 260,313.526444 L260,313.526444 C260,312.68387 260.68304,312.00083 261.525614,312.00083 C261.661852,312.00083 261.797476,312.019079 261.928868,312.05509 Z" id="Rectangle-14" fill="#A2BCE6"></path>
            <path d="M261.929145,272.054078 L315.670952,286.75282 C316.810111,287.064387 317.600098,288.099456 317.600098,289.280454 L317.600098,289.280454 C317.600098,290.123486 316.916686,290.806898 316.073654,290.806898 C315.93761,290.806898 315.802177,290.788711 315.670952,290.75282 L261.929145,276.054078 C260.789987,275.74251 260,274.707441 260,273.526444 L260,273.526444 C260,272.683412 260.683412,272 261.526444,272 C261.662488,272 261.797921,272.018187 261.929145,272.054078 Z" id="Rectangle-14" fill="#BAD1F4"></path>
            <path d="M261.928868,272.05509 L285.83871,278.608073 C286.977831,278.920272 287.767578,279.955589 287.767578,281.136719 L287.767578,281.136719 C287.767578,281.979292 287.084538,282.662332 286.241964,282.662332 C286.105726,282.662332 285.970102,282.644084 285.83871,282.608073 L261.928868,276.05509 C260.789747,275.74289 260,274.707573 260,273.526444 L260,273.526444 C260,272.68387 260.68304,272.00083 261.525614,272.00083 C261.661852,272.00083 261.797476,272.019079 261.928868,272.05509 Z" id="Rectangle-14" fill="#A2BCE6"></path>
            <path d="M261.929145,292.054078 L315.670952,306.75282 C316.810111,307.064387 317.600098,308.099456 317.600098,309.280454 L317.600098,309.280454 C317.600098,310.123486 316.916686,310.806898 316.073654,310.806898 C315.93761,310.806898 315.802177,310.788711 315.670952,310.75282 L261.929145,296.054078 C260.789987,295.74251 260,294.707441 260,293.526444 L260,293.526444 C260,292.683412 260.683412,292 261.526444,292 C261.662488,292 261.797921,292.018187 261.929145,292.054078 Z" id="Rectangle-14" fill="#BAD1F4"></path>
            <path d="M261.928868,292.05509 L285.83871,298.608073 C286.977831,298.920272 287.767578,299.955589 287.767578,301.136719 L287.767578,301.136719 C287.767578,301.979292 287.084538,302.662332 286.241964,302.662332 C286.105726,302.662332 285.970102,302.644084 285.83871,302.608073 L261.928868,296.05509 C260.789747,295.74289 260,294.707573 260,293.526444 L260,293.526444 C260,292.68387 260.68304,292.00083 261.525614,292.00083 C261.661852,292.00083 261.797476,292.019079 261.928868,292.05509 Z" id="Rectangle-14" fill="#A2BCE6"></path>
            <path d="M261.929145,302.054078 L315.670952,316.75282 C316.810111,317.064387 317.600098,318.099456 317.600098,319.280454 L317.600098,319.280454 C317.600098,320.123486 316.916686,320.806898 316.073654,320.806898 C315.93761,320.806898 315.802177,320.788711 315.670952,320.75282 L261.929145,306.054078 C260.789987,305.74251 260,304.707441 260,303.526444 L260,303.526444 C260,302.683412 260.683412,302 261.526444,302 C261.662488,302 261.797921,302.018187 261.929145,302.054078 Z" id="Rectangle-14" fill="#BAD1F4"></path>
            <path d="M261.929305,302.053495 L294.775041,311.026355 C295.91422,311.337558 296.704346,312.372484 296.704346,313.553406 L296.704346,313.553406 C296.704346,314.396701 296.020719,315.080328 295.177424,315.080328 C295.041492,315.080328 294.906168,315.062176 294.775041,315.026355 L261.929305,306.053495 C260.790126,305.742292 260,304.707366 260,303.526444 L260,303.526444 C260,302.683148 260.683626,301.999522 261.526922,301.999522 C261.662854,301.999522 261.798178,302.017673 261.929305,302.053495 Z" id="Rectangle-14" fill="#A2BCE6"></path>
            <g id="Group-9" transform="translate(200.000000, 254.000000)">
              <path d="M2.7,0.109757918 L42.3,11.366633 C43.7911688,11.7905194 45,13.3190707 45,14.7807479 L45,43.0111556 C45,44.4728328 43.7911688,45.3141285 42.3,44.8902421 L2.7,33.633367 C1.20883118,33.2094806 1.82615513e-16,31.6809293 0,30.2192521 L0,1.98884443 C-1.82615513e-16,0.527167212 1.20883118,-0.314128475 2.7,0.109757918 Z" id="Combined-Shape" fill="#3E9CFA" fill-rule="nonzero"></path>
              <polygon id="Rectangle-6" fill="#EDF8FF" points="0 5.625 45 18.8513514 45 22.5 0 9.27364865"></polygon>
            </g>
            <path d="M348.121265,343.60346 L382.27229,353.263728 C383.410788,353.585773 384.196777,354.624935 384.196777,355.808105 L384.196777,355.808105 C384.196777,356.643567 383.519502,357.320843 382.68404,357.320843 C382.544816,357.320843 382.406258,357.301623 382.27229,357.263728 L348.121265,347.60346 C346.982767,347.281414 346.196777,346.242252 346.196777,345.059082 L346.196777,345.059082 C346.196777,344.22362 346.874053,343.546345 347.709515,343.546345 C347.848739,343.546345 347.987297,343.565565 348.121265,343.60346 Z" id="Rectangle-14" fill="#A2BCE6"></path>
            <path d="M348.120839,335.604962 L360.659922,339.162457 C361.798356,339.485445 362.583984,340.524973 362.583984,341.708337 L362.583984,341.708337 C362.583984,342.543121 361.907258,343.219847 361.072474,343.219847 C360.932967,343.219847 360.794132,343.200534 360.659922,343.162457 L348.120839,339.604962 C346.982406,339.281975 346.196777,338.242447 346.196777,337.059082 L346.196777,337.059082 C346.196777,336.224298 346.873503,335.547572 347.708287,335.547572 C347.847794,335.547572 347.986629,335.566885 348.120839,335.604962 Z" id="Rectangle-14" fill="#A2BCE6"></path>
            <path d="M398.127983,318.579125 L457.027779,334.439918 C458.167198,334.746745 458.958984,335.779952 458.958984,336.959961 L458.958984,336.959961 C458.958984,337.806435 458.272782,338.492637 457.426308,338.492637 C457.291726,338.492637 457.157731,338.474912 457.027779,338.439918 L398.127983,322.579125 C396.988563,322.272298 396.196777,321.239091 396.196777,320.059082 L396.196777,320.059082 C396.196777,319.212608 396.88298,318.526406 397.729454,318.526406 C397.864035,318.526406 397.998031,318.544131 398.127983,318.579125 Z" id="Rectangle-14" fill="#A2BCE6"></path>
            <path d="M398.119854,308.608424 L425.149189,316.329564 C426.287469,316.654723 427.072266,317.695094 427.072266,318.878906 L427.072266,318.878906 C427.072266,319.71213 426.396804,320.387591 425.563581,320.387591 C425.423426,320.387591 425.283954,320.368061 425.149189,320.329564 L398.119854,312.608424 C396.981574,312.283265 396.196777,311.242894 396.196777,310.059082 L396.196777,310.059082 C396.196777,309.225858 396.872239,308.550397 397.705462,308.550397 C397.845617,308.550397 397.985089,308.569927 398.119854,308.608424 Z" id="Rectangle-14" fill="#A2BCE6"></path>
            <path d="M398.127983,338.579125 L457.027779,354.439918 C458.167198,354.746745 458.958984,355.779952 458.958984,356.959961 L458.958984,356.959961 C458.958984,357.806435 458.272782,358.492637 457.426308,358.492637 C457.291726,358.492637 457.157731,358.474912 457.027779,358.439918 L398.127983,342.579125 C396.988563,342.272298 396.196777,341.239091 396.196777,340.059082 L396.196777,340.059082 C396.196777,339.212608 396.88298,338.526406 397.729454,338.526406 C397.864035,338.526406 397.998031,338.544131 398.127983,338.579125 Z" id="Rectangle-14" fill="#BAD1F4"></path>
            <path d="M398.119854,328.608424 L425.149189,336.329564 C426.287469,336.654723 427.072266,337.695094 427.072266,338.878906 L427.072266,338.878906 C427.072266,339.71213 426.396804,340.387591 425.563581,340.387591 C425.423426,340.387591 425.283954,340.368061 425.149189,340.329564 L398.119854,332.608424 C396.981574,332.283265 396.196777,331.242894 396.196777,330.059082 L396.196777,330.059082 C396.196777,329.225858 396.872239,328.550397 397.705462,328.550397 C397.845617,328.550397 397.985089,328.569927 398.119854,328.608424 Z" id="Rectangle-14" fill="#BAD1F4"></path>
            <path d="M398.127983,358.579125 L457.027779,374.439918 C458.167198,374.746745 458.958984,375.779952 458.958984,376.959961 L458.958984,376.959961 C458.958984,377.806435 458.272782,378.492637 457.426308,378.492637 C457.291726,378.492637 457.157731,378.474912 457.027779,378.439918 L398.127983,362.579125 C396.988563,362.272298 396.196777,361.239091 396.196777,360.059082 L396.196777,360.059082 C396.196777,359.212608 396.88298,358.526406 397.729454,358.526406 C397.864035,358.526406 397.998031,358.544131 398.127983,358.579125 Z" id="Rectangle-14" fill="#A2BCE6"></path>
            <path d="M398.119854,348.608424 L425.149189,356.329564 C426.287469,356.654723 427.072266,357.695094 427.072266,358.878906 L427.072266,358.878906 C427.072266,359.71213 426.396804,360.387591 425.563581,360.387591 C425.423426,360.387591 425.283954,360.368061 425.149189,360.329564 L398.119854,352.608424 C396.981574,352.283265 396.196777,351.242894 396.196777,350.059082 L396.196777,350.059082 C396.196777,349.225858 396.872239,348.550397 397.705462,348.550397 C397.845617,348.550397 397.985089,348.569927 398.119854,348.608424 Z" id="Rectangle-14" fill="#A2BCE6"></path>
            <path d="M366.481047,300.922516 C368.935259,303.073057 369.339889,305.868103 367.694938,309.307655 L367.995213,309.828183 C368.873858,311.351322 368.496585,313.012761 367.15255,313.53911 C366.943584,313.620945 366.717893,313.671938 366.481047,313.69083 C366.481047,316.390187 364.522631,318.234763 361.802791,318.097147 C360.942408,318.053614 360.057593,317.837126 359.197211,317.45964 C356.47737,316.266332 354.518955,313.463426 354.518955,310.76407 C354.282109,310.629279 354.056417,310.467847 353.847451,310.283756 C352.503416,309.099718 352.126143,307.253666 353.004789,306.160482 L353.305063,305.78689 C351.660112,301.542399 352.064742,298.945354 354.518955,297.995756 C355.618997,297.085126 357.612679,296.799082 360.500001,297.137624 C363.387322,298.211961 365.381004,299.473592 366.481047,300.922516 Z M366.552144,308.784899 C366.486663,309.072258 366.545828,309.407181 366.722654,309.713699 L367.022942,310.234231 C367.537592,311.126347 367.317344,312.096233 366.522139,312.407627 C366.39675,312.456728 366.261034,312.487389 366.118363,312.498767 C365.637538,312.537114 365.312275,312.902733 365.312275,313.404867 C365.312275,315.545183 363.75356,317.013208 361.578796,316.903152 C360.866547,316.867108 360.134071,316.687894 359.421821,316.375406 C357.247058,315.421265 355.688343,313.1905 355.688343,311.050184 C355.688343,310.54805 355.363079,310.023266 354.882255,309.749633 C354.739584,309.66844 354.603868,309.571368 354.478479,309.460909 C353.683274,308.76039 353.463025,307.682728 353.977676,307.04245 L354.277964,306.668862 C354.45479,306.448872 354.513955,306.1429 354.448473,305.823498 L356.281288,304.40594 C356.472224,304.258265 356.773408,304.294935 357.006343,304.494218 C358.184559,305.502217 359.346642,306.141479 360.500309,306.423746 C361.653976,306.706014 362.816058,306.635404 363.994275,306.203952 C364.22721,306.118653 364.528394,306.229364 364.71933,306.470473 L366.552144,308.784899 Z M365.719752,318.675204 C366.53535,319.709105 367.581843,320.65838 368.859231,321.523027 C369.641442,322.052494 370.457713,322.51468 371.308044,322.909582 C372.329841,323.384115 373.118864,324.384042 373.314598,325.452486 C373.632259,327.186488 373.857741,328.688573 373.991044,329.958741 C374.064474,330.658491 373.680777,331.214052 373.045507,331.327786 C370.606782,331.764396 366.63656,332.417488 360.404363,330.892659 C354.172167,329.36783 350.391252,326.817437 347.954494,325.188777 C347.319219,324.76418 346.935519,324.020856 347.008958,323.357037 C347.142261,322.152101 347.367743,320.760356 347.685403,319.181801 C347.881137,318.209138 348.67016,317.59531 349.691957,317.620783 C350.542288,317.641981 351.358559,317.579229 352.14077,317.432527 C353.366822,317.202585 354.380165,316.790593 355.180797,316.196552 C356.96478,317.969595 358.737847,319.063337 360.5,319.477777 C362.262153,319.892217 364.00207,319.624692 365.719752,318.675204 Z" id="Combined-Shape" fill="#2B7DF2"></path>
            <g id="Group-55" transform="translate(337.000000, 193.000000)">
              <path d="M3,0 L18.5878216,4.33197022 L18.5878216,78.5392243 L3,74.2072541 L3,0 Z M29.994873,7.73474121 L45.5826947,12.0667114 L45.5826947,86.2739656 L29.994873,81.9419953 L29.994873,7.73474121 Z M56.5458984,15.1505127 L72.1337201,19.4824829 L72.1337201,93.689737 L56.5458984,89.3577668 L56.5458984,15.1505127 Z M84.6843952,22.4607757 L100.272217,26.7927459 L100.272217,101 L84.6843952,96.6680298 L84.6843952,22.4607757 Z M115.147286,31.1846526 L130.735107,35.5166228 L130.735107,109.723877 L115.147286,105.391907 L115.147286,31.1846526 Z" id="Combined-Shape" fill="#CADBF7"></path>
              <polyline id="Path-8" stroke="#5290FF" stroke-width="2" stroke-linecap="round" stroke-linejoin="round" points="0.256356451 56.4283229 4.18956299 55.9616421 9.83240338 48.4434868 15.2820791 43.5061826 18.6156885 44.4326172 26.628741 47.4566641 35.9988467 46.5142688 40.0248849 40.4842968 45.049201 55.4247164 49.2021484 59.0991211 57.3681641 53.9919675 62.7998047 46.5142688 69.8623047 43.3369141 73.1738281 55.9794922 76.3339844 59.0991211 89.4790039 52.6082804 93.7792969 52.6082804 101.291992 64.5400391 105.620605 63.3027344 112.613281 56.1900131 122.245117 52.6082804 124.663574 59.0991211 134.989258 55.4247164"></polyline>
              <g id="Oval-11">
                <use fill="#2DE6FF" fill-rule="evenodd" xlink:href="#path-5"></use>
                <circle stroke="#BCD0F0" stroke-width="1.5" cx="40.5" cy="40.5" r="3.75"></circle>
              </g>
              <g id="Oval-11">
                <use fill="#2DE6FF" fill-rule="evenodd" xlink:href="#path-6"></use>
                <circle stroke="#BCD0F0" stroke-width="1.5" cx="92" cy="52" r="3.75"></circle>
              </g>
            </g>
            <path d="M116.946331,7.37115551 L495.0758,112.447563 C500.095875,113.842565 504.165451,119.180478 504.165451,124.370125 L504.165451,146.922176 L107.85668,36.7940184 L107.85668,14.241968 C107.85668,9.05232071 111.926256,5.97615317 116.946331,7.37115551 Z" id="Rectangle-7" fill="#2B7DF2"></path>
            <g id="Group-30" transform="translate(48.000000, 208.000000)" fill="#2DE6FF">
              <path d="M1.73268041,0.0642022776 L76.2673196,21.0577329 C77.2242526,21.3243008 78,22.3443108 78,23.335989 L78,100.622869 C78,101.614548 77.2242526,102.202366 76.2673196,101.935798 L1.73268041,80.9422671 C0.775747445,80.6756992 0,79.6556892 0,78.664011 L0,1.37713059 C0,0.385452405 0.775747445,-0.202365624 1.73268041,0.0642022776 Z" id="Rectangle-12" stroke="#2DE6FF" stroke-width="1.6" fill-opacity="0.68"></path>
              <path d="M37,80 C24.3333333,64.6029422 18,53.4211055 18,46.4544897 C18,36.004566 26.5065898,29.8450602 37,32.6968485 C47.4934102,35.5486367 56,46.3318048 56,56.7817285 C56,63.7483443 49.6666667,71.4877681 37,80 Z M37,62.9708654 C43.8207167,64.8245278 49.35,60.8208491 49.35,54.0283987 C49.35,47.2359483 43.8207167,40.226889 37,38.3732266 C30.1792833,36.5195643 24.65,40.523243 24.65,47.3156934 C24.65,54.1081438 30.1792833,61.1172031 37,62.9708654 Z" id="Combined-Shape"></path>
              <path d="M1.73268041,0.0642758788 L76.2673196,21.0818734 C77.2242526,21.3487469 78,22.3699262 78,23.3627413 L78,33.46875 L0,11.4847181 L0,1.37870933 C0,0.385894285 0.775747445,-0.202597615 1.73268041,0.0642758788 Z" id="Rectangle-12"></path>
            </g>
            <g id="Group-30" transform="translate(0.000000, 94.000000)">
              <path d="M1.73268041,0.0642022776 L76.2673196,21.0577329 C77.2242526,21.3243008 78,22.3443108 78,23.335989 L78,100.622869 C78,101.614548 77.2242526,102.202366 76.2673196,101.935798 L1.73268041,80.9422671 C0.775747445,80.6756992 0,79.6556892 0,78.664011 L0,1.37713059 C0,0.385452405 0.775747445,-0.202365624 1.73268041,0.0642022776 Z" id="Rectangle-12" stroke="#2DE6FF" stroke-width="1.6" fill="#33C9FB"></path>
              <g id="Group-59" transform="translate(14.326531, 27.093750)">
                <path d="M43.7755102,30.6316893 C43.7755102,42.5271202 36.4895276,48.4421636 22.4694215,48.2493657 C22.0936267,48.244198 21.6969846,48.1320312 21.3204921,47.9244591 C7.29136751,40.1897605 5.97787126e-14,30.0973438 2.23562665e-13,18.104871 L0,3.50498265 C7.5330898e-15,2.59368003 0.578005283,1.94553607 1.44537003,1.88422264 L21.1443496,0.491714985 C21.6247712,0.457754308 22.150739,0.608265496 22.6311606,0.917181433 L42.3301402,13.5838256 C43.1975049,14.1415499 43.7755102,15.1204983 43.7755102,16.031801 L43.7755102,30.6316893 Z" id="Path" fill="#2DE6FF"></path>
                <path d="M40.3195489,15.922024 L21.8877551,4.07019324 L3.45596133,5.37312438 L3.45596133,19.0938304 C3.45596133,29.2982259 9.45390918,37.7549178 21.883305,44.6975603 C34.3203727,44.7795777 40.3195489,39.7531058 40.3195489,29.64273 L40.3195489,15.922024 Z" id="Path" fill="#33C9FB"></path>
                <path d="M28.8227634,18.5700003 C29.4839017,17.9380312 30.6823344,18.1538469 31.4995377,19.0520381 C32.316741,19.9502294 32.4432567,21.1906695 31.7821183,21.8226386 L21.9023321,31.2665316 C21.2757359,31.8654826 20.1579003,31.7066457 19.3389321,30.9022897 L13.6922779,25.356384 C12.8281628,24.5076866 12.6128583,23.2546302 13.2113817,22.5576042 C13.8099051,21.8605783 14.9956079,21.9835322 15.859723,22.8322296 L20.0541119,26.9517816 L28.8227634,18.5700003 Z" id="Path-59" fill="#2DE6FF" fill-rule="nonzero"></path>
              </g>
              <path d="M1.73268041,0.0642758788 L76.2673196,21.0818734 C77.2242526,21.3487469 78,22.3699262 78,23.3627413 L78,33.46875 L0,11.4847181 L0,1.37870933 C0,0.385894285 0.775747445,-0.202597615 1.73268041,0.0642758788 Z" id="Rectangle-12" fill="#2DE6FF"></path>
            </g>
            <g id="Group-30" transform="translate(538.000000, 196.000000)">
              <path d="M1.73268041,0.0642022776 L76.2673196,21.0577329 C77.2242526,21.3243008 78,22.3443108 78,23.335989 L78,100.622869 C78,101.614548 77.2242526,102.202366 76.2673196,101.935798 L1.73268041,80.9422671 C0.775747445,80.6756992 0,79.6556892 0,78.664011 L0,1.37713059 C0,0.385452405 0.775747445,-0.202365624 1.73268041,0.0642022776 Z" id="Rectangle-12" stroke="#2DE6FF" stroke-width="1.6" fill="#33C9FB"></path>
              <g id="Group-32" transform="translate(18.306122, 31.078125)">
                <path d="M3.8179799,4.50570028 L7.83797472,1.60460822 C8.47164277,1.14731178 9.46255634,1.32487259 10.2131743,2.03021787 L12.9556501,4.60728418 C13.4669907,4.50653318 13.9913025,4.4367099 14.5266239,4.3983345 L15.2009989,1.36870686 C15.3856136,0.539326216 16.1592516,0.127741475 17.0553936,0.382146635 L22.7405248,1.99609486 C23.6366667,2.25050002 24.4103048,3.10133998 24.5949194,4.03554089 L25.2692944,7.44806431 C25.8046159,7.79038384 26.3289277,8.15790018 26.8402683,8.54897947 L29.582744,7.52903252 C30.333362,7.24987216 31.3242756,7.63493097 31.9579436,8.45201064 L35.9779385,13.6355702 C36.6116065,14.4526498 36.7147824,15.4783584 36.2252489,16.0941728 L34.4366777,18.3441266 C34.6812344,18.9277347 34.8986962,19.5166941 35.0879921,20.1087284 L38.2912735,21.696227 C39.168193,22.1308153 39.7959184,23.0869554 39.7959184,23.9880754 L39.7959184,29.7047874 C39.7959184,30.6059074 39.168193,31.2056384 38.2912735,31.1423305 L35.0879921,30.9110741 C34.8986962,31.3956302 34.6812344,31.8611194 34.4366777,32.3058735 L36.2252489,35.5713399 C36.7147824,36.4651009 36.6116065,37.4322285 35.9779385,37.8895249 L31.9579436,40.790617 C31.3242756,41.2479134 30.333362,41.0703526 29.582744,40.3650073 L26.8402683,37.787941 C26.3289277,37.888692 25.8046159,37.9585153 25.2692944,37.9968907 L24.5949194,41.0265183 C24.4103048,41.855899 23.6366667,42.2674837 22.7405248,42.0130786 L17.0553936,40.3991303 C16.1592516,40.1447252 15.3856136,39.2938852 15.2009989,38.3596843 L14.5266239,34.9471609 C13.9913025,34.6048414 13.4669907,34.237325 12.9556501,33.8462457 L10.2131743,34.8661927 C9.46255634,35.145353 8.47164277,34.7602942 7.83797472,33.9432145 L3.8179799,28.759655 C3.18431185,27.9425753 3.08113599,26.9168668 3.57066947,26.3010524 L5.35924063,24.0510986 C5.11468399,23.4674905 4.89722217,22.8785311 4.70792624,22.2864968 L1.50464486,20.6989982 C0.62772535,20.2644099 0,19.3082698 0,18.4071498 L6.73254779e-15,12.6904378 C1.00988217e-14,11.7893178 0.62772535,11.1895868 1.50464486,11.2528947 L4.70792624,11.484151 C4.89722217,10.999595 5.11468399,10.5341058 5.35924063,10.0893517 L3.57066947,6.82388526 C3.08113599,5.93012426 3.18431185,4.96299672 3.8179799,4.50570028 Z" id="Combined-Shape" fill="#2DE6FF" fill-rule="nonzero"></path>
                <path d="M19.8979592,29.7726805 C24.6076761,31.109719 28.425656,28.3544142 28.425656,23.6185349 C28.425656,18.8826557 24.6076761,13.9595832 19.8979592,12.6225447 C15.1882423,11.2855062 11.3702624,14.040811 11.3702624,18.7766903 C11.3702624,23.5125695 15.1882423,28.435642 19.8979592,29.7726805 Z" id="Oval-27" fill="#16CAED"></path>
              </g>
              <path d="M1.73268041,0.0642758788 L76.2673196,21.0818734 C77.2242526,21.3487469 78,22.3699262 78,23.3627413 L78,33.46875 L0,11.4847181 L0,1.37870933 C0,0.385894285 0.775747445,-0.202597615 1.73268041,0.0642758788 Z" id="Rectangle-12" fill="#2DE6FF"></path>
            </g>
          </g>
          <g id="Group-29" transform="translate(250.000000, 276.000000)">
            <path d="M121.931519,87.0716553 L121.931519,135.382538 C121.931519,137.156971 120.762516,138.719313 119.060185,139.219999 L77.1336931,151.551337 C76.2252517,151.805058 75.2646616,151.805058 74.3562201,151.551337 L2.97780131,131.666272 C1.24795726,131.184361 0.0512695313,129.608722 0.0512695313,127.813005 L0.0512695312,90.7479248 L75.7449566,78.6894968 C76.3505843,78.5203499 91.7461049,81.3144028 121.931519,87.0716553 Z" id="Polygon" fill="#A0BCEA"></path>
            <path d="M75.7449566,95.7666016 L75.8130034,151.741179 C75.1593283,151.703297 74.6737339,151.640016 74.3562201,151.551337 L2.97780131,131.666272 C1.24795726,131.184361 0.0512695313,129.608722 0.0512695313,127.813005 L0.0512695312,90.7479248 L75.7449566,78.6894968 C76.3505843,78.5203499 76.3505843,84.2127182 75.7449566,95.7666016 Z" id="Polygon" fill="#BCD0F0"></path>
            <path d="M47.8849908,65.602372 L121.241211,86.0901616 C121.790442,86.2435572 122.111329,86.8131483 121.957934,87.3623789 C121.860795,87.7101809 121.589013,87.9819633 121.241211,88.0791016 L76.8887365,112.154809 C75.980295,112.40853 75.019705,112.40853 74.1112635,112.154809 L0.755043375,91.6670197 C0.205812765,91.5136241 -0.115074914,90.944033 0.0383206824,90.3948024 C0.135458939,90.0470004 0.40724132,89.775218 0.755043375,89.6780797 L45.1075178,65.602372 C46.0159593,65.3486518 46.9765494,65.3486518 47.8849908,65.602372 Z" id="Polygon" fill="#E7F0FC"></path>
            <path d="M52.7215493,74.1874114 L99.0215688,87.1186265 C99.3682249,87.2154447 99.5707586,87.5749517 99.4739404,87.9216079 C99.41263,88.1411291 99.2410899,88.3126691 99.0215688,88.3739796 L71.0277541,103.56977 C70.4543759,103.72991 69.8480832,103.72991 69.274705,103.56977 L22.9746856,90.6385548 C22.6280294,90.5417366 22.4254957,90.1822296 22.5223139,89.8355734 C22.5836244,89.6160522 22.7551644,89.4445122 22.9746856,89.3832017 L50.9685002,74.1874114 C51.5418784,74.0272716 52.1481711,74.0272716 52.7215493,74.1874114 Z" id="Polygon" fill="#00D1FF"></path>
            <path d="M24.7235525,4.45237165 L98.9758133,4 C99.3224694,4.09681823 99.5250031,86.795486 99.4281849,87.1421422 C99.3668745,87.3616633 99.1953344,87.5332034 98.9758133,87.5945138 L70.5296269,103.242676 C69.9562487,103.402816 69.3499561,103.402816 68.7765779,103.242676 L22.4765584,90.3114608 C22.1299022,90.2146425 21.9273685,89.8551355 22.0241867,89.5084793 C22.0854972,89.2889581 22.2570372,89.1174181 22.4765584,89.0561076 L22.9705035,4.45237165 C23.5438817,4.29223184 24.1501743,4.29223184 24.7235525,4.45237165 Z" id="Polygon" fill="url(#linearGradient-7)" opacity="0.393379195"></path>
            <path d="M33.7657108,16.970612 L89.3693164,16.6318547 C89.6289089,16.7043568 89.7805757,89.1406683 89.7080736,89.4002609 C89.6621615,89.5646487 89.5337042,89.693106 89.3693164,89.7390181 L68.0674663,101.457102 C67.6380936,101.577022 67.184073,101.577022 66.7547002,101.457102 L32.0830553,91.7735965 C31.8234627,91.7010945 31.6717959,91.4318786 31.744298,91.172286 C31.7902102,91.0078982 31.9186675,90.8794409 32.0830553,90.8335287 L32.4529447,16.970612 C32.8823175,16.8506917 33.3363381,16.8506917 33.7657108,16.970612 Z" id="Polygon" fill="url(#linearGradient-7)" opacity="0.393379195"></path>
            <g id="Group-34" transform="translate(57.656250, 10.281250)">
              <path d="M8.4375,16.5390196 C13.0974026,17.8365799 16.875,15.2612864 16.875,10.7869407 C16.875,6.31259495 13.0974026,1.63354065 8.4375,0.335980383 C3.77759742,-0.96157988 0,1.61371358 0,6.08805931 C0,10.562405 3.77759742,15.2414594 8.4375,16.5390196 Z" id="Oval-5" fill="#2DE6FF"></path>
              <path d="M9.95495166,6.65198953 C10.3211126,6.33937305 10.9477581,6.49403476 11.3546036,6.99743612 C11.7614491,7.50083749 11.7944304,8.16235066 11.4282695,8.47496713 L7.86040594,11.5210948 C7.49633149,11.8319299 6.87416721,11.6809907 6.46671686,11.1829811 L4.22828511,8.44703891 C3.8184997,7.94617523 3.78046542,7.2834362 4.14333316,6.96676986 C4.5062009,6.65010353 5.13256004,6.79942498 5.54234545,7.30028866 L7.04475537,9.13662191 L9.95495166,6.65198953 Z" id="Path-310" fill="#FFFFFF" fill-rule="nonzero"></path>
            </g>
            <g id="Group-31" transform="translate(23.000000, 0.000000)">
              <g id="Group-43" transform="translate(0.000000, 70.000000)" fill="#00D1FF">
                <circle id="Oval-9" opacity="0.200000003" cx="1" cy="1" r="1"></circle>
                <circle id="Oval-9" cx="1" cy="1" r="1"></circle>
              </g>
              <g id="Group-43" transform="translate(55.000000, 69.000000)" fill="#FFFFFF">
                <circle id="Oval-9" opacity="0.200000003" cx="1" cy="1" r="1"></circle>
                <circle id="Oval-9" cx="1" cy="1" r="1"></circle>
              </g>
              <g id="Group-43" transform="translate(19.000000, 81.000000)" fill="#FFFFFF">
                <circle id="Oval-9" opacity="0.200000003" cx="1" cy="1" r="1"></circle>
                <circle id="Oval-9" cx="1" cy="1" r="1"></circle>
              </g>
              <g id="Group-43" transform="translate(72.000000, 83.000000)" fill="#00D1FF">
                <circle id="Oval-9" opacity="0.200000003" cx="1" cy="1" r="1"></circle>
                <circle id="Oval-9" cx="1" cy="1" r="1"></circle>
              </g>
              <g id="Group-43" transform="translate(18.000000, 53.000000)" fill="#FFFFFF">
                <circle id="Oval-9" opacity="0.200000003" cx="15.96" cy="11.96" r="1"></circle>
                <circle id="Oval-9" cx="0.420840348" cy="0.420840348" r="1"></circle>
              </g>
              <g id="Group-43" transform="translate(59.000000, 78.000000)">
                <circle id="Oval-9" fill="#70DFFD" opacity="0.200000003" cx="1" cy="1" r="1"></circle>
                <circle id="Oval-9" fill="#00D1FF" cx="1" cy="1" r="1"></circle>
              </g>
              <g id="Group-43" transform="translate(32.000000, 46.000000)" fill="#FFFFFF" opacity="0.200000003">
                <circle id="Oval-9" cx="0.96" cy="0.96" r="1"></circle>
              </g>
              <g id="Group-43" transform="translate(53.000000, 35.000000)" fill="#00D1FF">
                <circle id="Oval-9" opacity="0.200000003" cx="1" cy="1" r="1"></circle>
                <circle id="Oval-9" cx="1" cy="1" r="1"></circle>
              </g>
              <g id="Group-43" transform="translate(53.000000, 57.000000)" fill="#00D1FF">
                <circle id="Oval-9" opacity="0.200000003" cx="1" cy="1" r="1"></circle>
                <circle id="Oval-9" cx="1" cy="1" r="1"></circle>
              </g>
              <g id="Group-43" transform="translate(26.000000, 35.000000)" fill="#00D1FF">
                <circle id="Oval-9" opacity="0.200000003" cx="1" cy="1" r="1"></circle>
                <circle id="Oval-9" cx="1" cy="1" r="1"></circle>
              </g>
              <g id="Group-43" transform="translate(0.000000, 21.000000)" fill="#00D1FF">
                <circle id="Oval-9" opacity="0.200000003" cx="1" cy="1" r="1"></circle>
                <circle id="Oval-9" cx="1" cy="1" r="1"></circle>
              </g>
              <g id="Group-43" transform="translate(31.000000, 0.000000)">
                <circle id="Oval-9" fill="#00FFF2" opacity="0.200000003" cx="1" cy="1" r="1"></circle>
                <circle id="Oval-9" fill="#00D1FF" cx="1" cy="1" r="1"></circle>
              </g>
              <g id="Group-43" transform="translate(49.000000, 20.000000)" fill="#00D1FF">
                <circle id="Oval-9" opacity="0.200000003" cx="1" cy="1" r="1"></circle>
                <circle id="Oval-9" cx="1" cy="1" r="1"></circle>
              </g>
              <g id="Group-43" transform="translate(15.000000, 20.000000)" fill="#00D1FF">
                <circle id="Oval-9" opacity="0.200000003" cx="1" cy="1" r="1"></circle>
                <circle id="Oval-9" cx="1" cy="1" r="1"></circle>
              </g>
              <g id="Group-43" transform="translate(73.000000, 52.000000)" fill="#00D1FF">
                <circle id="Oval-9" opacity="0.200000003" cx="1" cy="1" r="1"></circle>
                <circle id="Oval-9" cx="1" cy="1" r="1"></circle>
              </g>
              <g id="Group-43" transform="translate(15.000000, 45.000000)">
                <circle id="Oval-9" fill="#00FFF2" opacity="0.200000003" cx="1" cy="1" r="1"></circle>
                <circle id="Oval-9" fill="#00D1FF" cx="1" cy="1" r="1"></circle>
              </g>
            </g>
          </g>
          <g id="Group-53" transform="translate(259.000000, 327.000000)">
            <path d="M19.7924805,115.421753 L19.1446533,117.111328 L19.1446533,120.558228 C19.1001383,121.445597 19.8618164,121.739827 21.4296875,121.440918 C22.9194521,121.156899 26.2054711,119.443812 31.2877446,116.301657 L31.287737,116.301644 C31.7574846,116.011219 31.9028542,115.394977 31.6124291,114.92523 C31.6042223,114.911956 31.595706,114.898876 31.5868871,114.886 C30.3066063,113.016838 28.3184337,112.585192 25.6223693,113.591064 C22.5330586,114.743652 20.5897624,115.353882 19.7924805,115.421753 Z" id="Path-58" fill="url(#linearGradient-3)"></path>
            <path d="M6.83178711,111.121338 L6.18395996,112.810913 L6.18395996,116.257813 C6.13944499,117.145182 6.90112305,117.439412 8.46899414,117.140503 C9.95606971,116.856997 13.0377826,115.179592 17.7141328,112.108289 L17.7141272,112.108281 C18.175748,111.805101 18.3041895,111.185107 18.0010091,110.723486 C17.9985097,110.71968 17.9959844,110.715892 17.9934333,110.712121 C16.7138203,108.820608 14.7196489,108.38015 12.0109191,109.390747 C8.92160845,110.543335 7.19523112,111.120199 6.83178711,111.121338 Z" id="Path-58" fill="url(#linearGradient-3)"></path>
            <path d="M27.2924805,61.5976562 C26.9965497,70.417735 26.6560549,79.6104433 26.2709961,89.1757812 C25.8859373,98.7411192 25.495475,107.706288 25.0996094,116.071289 C22.8303223,117.331462 20.8434245,117.821126 19.138916,117.540283 C18.4559586,104.80149 17.9357763,96.1458093 17.5783691,91.5732422 C17.1530614,86.1319746 16.4991715,79.766903 15.6166992,72.4780273 C15.4423761,76.8599043 14.9864842,82.8626713 14.2490234,90.4863281 C13.5115627,98.109985 12.6912502,105.300252 11.7880859,112.057129 C9.60807292,113.136312 7.73771159,113.536865 6.17700195,113.258789 C6.28941127,100.721443 6.28941127,91.8933183 6.17700195,86.7744141 C6.00838798,79.0960578 5.06041699,61.4245891 5.20385742,59.345459 L17.5783691,52.2058105 L27.2924805,61.5976562 Z" id="Path-52" fill="url(#linearGradient-3)"></path>
            <path d="M24.2409668,3.86035156 C26.7946777,11.7486979 25.857666,17.1296387 21.4299316,20.0031738 C19.7813314,20.6721191 19.2197266,22.4030762 19.7451172,25.1960449 C20.5332031,29.385498 13.0551758,27.8723145 12.7770996,24.3337402 C12.5917155,21.9746908 12.5917155,18.7505697 12.7770996,14.661377 C16.1789817,8.31355794 18.0899517,5.13964844 18.5100098,5.13964844 C18.9300678,5.13964844 20.8403868,4.71321615 24.2409668,3.86035156 Z" id="Path-57" fill="url(#linearGradient-8)"></path>
            <path d="M19.0563965,15.1723633 C19.7253418,18.6591797 18.0743001,20.4025879 14.1032715,20.4025879 C8.14672852,20.4025879 9.90185547,14.3613281 8.94848633,10.8459473 C7.99511719,7.33056641 10.6516113,1.26586914 16.4609375,0.784179687 C22.2702637,0.302490234 23.8740234,-0.0217285156 25.4821777,1.12280273 C27.090332,2.26733398 27.9106445,5.44335938 26.5039062,6.81347656 C25.097168,8.18359375 21.8071289,5.60253906 21.4987793,9.40722656 C21.1904297,13.2119141 20.0480957,11.6903076 19.0563965,10.8459473 C18.0646973,10.0015869 16.4609375,10.4289551 16.4609375,12.734375 C16.4609375,14.2713216 17.3260905,15.0839844 19.0563965,15.1723633 Z" id="Path-56" fill="url(#linearGradient-3)"></path>
            <path d="M46.6835938,35.5888672 C47.4602865,34.011556 47.4602865,33.2229004 46.6835938,33.2229004 C45.5185547,33.2229004 44.7770996,34.347168 44.7770996,36.8400879 C44.7770996,38.5020345 45.8947754,38.6378581 48.130127,37.2475586 L46.6835938,35.5888672 Z" id="Path-55" fill="#F9FDFF"></path>
            <path d="M44.3691406,36.8078065 C48.546875,34.0871033 51.1416016,32.4533956 52.1533203,31.9066834 C53.6708984,31.086615 54.4003906,31.5944275 54.4003906,32.4166932 C54.4003906,32.9648703 53.2631022,33.9309347 50.9885254,35.3148865 C52.4020996,34.7409933 53.2484538,35.2386333 53.5275879,36.8078065 C53.9462891,39.1615662 53.0759277,39.9086365 50.5410156,40.43891 C48.0061035,40.9691834 47.1337891,41.1005859 45.4006348,42.4770508 C44.2451986,43.394694 43.9013672,41.5049459 44.3691406,36.8078065 Z" id="Path-54" fill="url(#linearGradient-8)"></path>
            <g id="Path-53" transform="translate(0.000000, 20.000000)">
              <mask id="mask-11" fill="white">
                <use xlink:href="#path-10"></use>
              </mask>
              <use id="Mask" fill="url(#linearGradient-9)" xlink:href="#path-10"></use>
              <path d="M1.5390625,33.0895996 L5.26733398,32.3945312 L5.26733398,20.8378906 C5.97436523,27.7060547 6.59659831,33.3910319 7.1340332,37.8928223 C7.6714681,42.3946126 11.5344238,44.4910482 18.7229004,44.1821289 C16.7548014,49.4051107 12.3565267,50.5489909 5.52807617,47.6137695 C-4.71459961,43.2109375 -6.98583984,39.6315415 -4.29760742,37.324707 C-2.50545247,35.7868174 -0.559895833,34.3751149 1.5390625,33.0895996 Z" fill="url(#linearGradient-12)" mask="url(#mask-11)"></path>
            </g>
          </g>
        </g>
      </g>
    </g>
  </g>
</svg>